<svg width="500" height="580" viewBox="0 0 500 580" fill="none" xmlns="http://www.w3.org/2000/svg">
<g filter="url(#filter0_d_468_1521)">
<rect x="80" y="40" width="340" height="420" rx="18" fill="#3D4520" shape-rendering="crispEdges"/>
<rect x="102" y="62" width="89.3333" height="72.75" rx="10" fill="#9F3D1A"/>
<path d="M135.467 109.943H157.867V87.543H135.467V109.943Z" fill="#1C1A17"/>
<rect x="205.333" y="62" width="89.3333" height="72.75" rx="10" fill="#D1A230"/>
<path d="M238.8 109.943H261.2V87.543H238.8V109.943Z" fill="#1C1A17"/>
<rect x="308.667" y="62" width="89.3333" height="72.75" rx="10" fill="#C0896A"/>
<path d="M342.134 109.943H364.534V87.543H342.134V109.943Z" fill="#1C1A17"/>
<rect x="102" y="148.75" width="89.3333" height="72.75" rx="10" fill="#D27B7B"/>
<path d="M135.467 196.693H157.867V174.293H135.467V196.693Z" fill="#1C1A17"/>
<rect x="205.333" y="148.75" width="192.667" height="72.75" rx="10" fill="#7A8C3A"/>
<path d="M293.666 193.245H309.666V177.245H293.666V193.245Z" fill="#1C1A17"/>
<rect x="102" y="235.5" width="89.3333" height="72.75" rx="10" fill="#9F3D1A"/>
<path d="M135.467 283.443H157.867V261.043H135.467V283.443Z" fill="#1C1A17"/>
<rect x="205.333" y="235.5" width="89.3333" height="159.5" rx="10" fill="#D1A230"/>
<path d="M238.8 326.818H261.2V304.418H238.8V326.818Z" fill="#1C1A17"/>
<rect x="308.667" y="235.5" width="89.3333" height="72.75" rx="10" fill="#5D682E"/>
<path d="M342.134 283.443H364.534V261.043H342.134V283.443Z" fill="#1C1A17"/>
<rect x="102" y="322.25" width="89.3333" height="72.75" rx="10" fill="#C0896A"/>
<path d="M135.467 370.193H157.867V347.793H135.467V370.193Z" fill="#1C1A17"/>
<rect x="308.667" y="322.25" width="89.3333" height="72.75" rx="10" fill="#D27B7B"/>
<path d="M342.134 370.193H364.534V347.793H342.134V370.193Z" fill="#1C1A17"/>
<rect x="102" y="409" width="192.667" height="29" rx="10" fill="#7A8C3A"/>
<path d="M187.133 435.068H209.533V412.668H187.133V435.068Z" fill="#1C1A17"/>
</g>
<defs>
<filter id="filter0_d_468_1521" x="0" y="0" width="500" height="580" filterUnits="userSpaceOnUse" color-interpolation-filters="sRGB">
<feFlood flood-opacity="0" result="BackgroundImageFix"/>
<feColorMatrix in="SourceAlpha" type="matrix" values="0 0 0 0 0 0 0 0 0 0 0 0 0 0 0 0 0 0 127 0" result="hardAlpha"/>
<feOffset dy="40"/>
<feGaussianBlur stdDeviation="40"/>
<feComposite in2="hardAlpha" operator="out"/>
<feColorMatrix type="matrix" values="0 0 0 0 0 0 0 0 0 0 0 0 0 0 0 0 0 0 0.35 0"/>
<feBlend mode="normal" in2="BackgroundImageFix" result="effect1_dropShadow_468_1521"/>
<feBlend mode="normal" in="SourceGraphic" in2="effect1_dropShadow_468_1521" result="shape"/>
</filter>
</defs>
</svg>
