<svg width="80" height="90" viewBox="0 0 80 90" fill="none" xmlns="http://www.w3.org/2000/svg">
<path d="M79.9746 78.5501V89.9459H0V78.5501" fill="#D1A230"/>
<path d="M70.6136 18.1791C62.8807 13.77 54.5373 11.1245 45.719 10.3105V33.3058H34.391V10.3105C25.5728 11.1245 17.2294 13.77 9.42863 18.1791L5.42651 9.15739C15.6014 3.05246 27.1329 0 39.8854 0C52.638 0 64.373 3.05246 74.6157 9.15739L70.6136 18.1791Z" fill="#D1A230"/>
<path d="M24.0128 82.213C19.2645 79.6354 15.4659 75.9725 12.7526 71.4277C10.0393 66.8151 8.68262 61.6598 8.68262 56.0297C8.68262 50.3996 10.0393 45.2443 12.7526 40.6317C15.4659 36.0191 19.1967 32.424 24.0128 29.8463C28.7611 27.2687 34.1198 25.912 40.0891 25.912C46.0583 25.912 51.2814 27.2009 56.0976 29.8463C60.8458 32.424 64.5766 36.0191 67.2899 40.6317C70.0032 45.1765 71.3599 50.3317 71.3599 56.0975C71.3599 61.8633 70.0032 66.9507 67.2899 71.5633C64.5766 76.1081 60.8458 79.7032 56.0976 82.3487C51.3493 84.9263 45.9905 86.283 40.0891 86.283C34.1877 86.283 28.7611 84.9942 24.0128 82.3487V82.213ZM51.7563 75.7011C55.2157 73.734 57.929 71.0207 59.8962 67.5612C61.8633 64.1018 62.8808 60.2353 62.8808 55.9619C62.8808 51.6884 61.8633 47.8219 59.8962 44.3625C57.929 40.903 55.1479 38.1897 51.7563 36.2226C48.2968 34.2554 44.4304 33.3058 40.0891 33.3058C35.7478 33.3058 31.8813 34.2554 28.3541 36.2226C24.8268 38.1897 22.1135 40.903 20.0785 44.3625C18.1113 47.8219 17.0939 51.6884 17.0939 55.9619C17.0939 60.2353 18.1113 64.1018 20.0785 67.5612C22.0456 71.0207 24.8268 73.734 28.3541 75.7011C31.8813 77.6683 35.7478 78.6179 40.0891 78.6179C44.4304 78.6179 48.2968 77.6683 51.7563 75.7011Z" fill="#D1A230"/>
</svg>
